<?xml version="1.0" encoding="UTF-8"?>
<svg version="1.1" xmlns="http://www.w3.org/2000/svg" width="600" height="327">
<path d="M0 0 C4.05465588 1.35155196 4.50566425 3.13437483 6.57421875 6.828125 C6.90291458 7.4141449 7.23161041 8.00016479 7.57026672 8.60394287 C8.26315795 9.84552377 8.95129223 11.08976957 9.63500977 12.33642578 C10.68021479 14.23675448 11.74606172 16.12435049 12.81445312 18.01171875 C13.48565966 19.2206418 14.15562277 20.43025622 14.82421875 21.640625 C15.43354248 22.73922852 16.04286621 23.83783203 16.6706543 24.96972656 C17.9871106 27.97061832 18.30441245 29.77539969 18 33 C17.34 33 16.68 33 16 33 C15.9175 33.763125 15.835 34.52625 15.75 35.3125 C14.71222135 40.4149117 12.85712968 45.1455494 11 50 C14.33898961 48.58566816 16.11543581 46.93619488 18.375 44.125 C21.33157342 40.608903 24.13618344 38.42611737 28 36 C28.66 35.01 29.32 34.02 30 33 C37.47790213 33.59121153 44.27363732 35.75429142 51.40625 38 C52.69820506 38.40051644 53.99040557 38.80024192 55.28283691 39.19921875 C60.04712593 40.67185407 64.80689135 42.15889564 69.5668335 43.64550781 C73.60060206 44.90470951 77.636026 46.15832895 81.67375183 47.40478516 C83.55198437 47.98705232 85.42769946 48.5774204 87.30334473 49.16796875 C93.24826196 51.00617109 98.80840453 52.41137536 105 53 C105.66 53.33 106.32 53.66 107 54 C107 54.66 107 55.32 107 56 C108.27875 56.0825 109.5575 56.165 110.875 56.25 C116.36247708 56.84042475 120.97681884 58.82389264 126 61 C126.99 61.33 127.98 61.66 129 62 C129 62.66 129 63.32 129 64 C125.04 64 121.08 64 117 64 C117.44802979 64.95140869 117.89605957 65.90281738 118.35766602 66.88305664 C120.05584218 70.48937981 121.75367507 74.09586451 123.45141602 77.70239258 C124.17951577 79.2489846 124.90770268 80.79553558 125.63598633 82.34204102 C127.75064462 86.83258868 129.86360203 91.32392959 131.97402954 95.81646729 C132.6522922 97.25998712 133.33097558 98.70330935 134.01010132 100.14642334 C134.9613684 102.16852549 135.91063568 104.19155462 136.859375 106.21484375 C137.40174805 107.36976318 137.94412109 108.52468262 138.50292969 109.71459961 C139.9764286 112.94827131 141.35035579 116.20789005 142.6875 119.5 C143.98331321 122.67601277 145.29773844 125.68373074 147.0625 128.625 C148.58855569 131.28329056 149.67908316 133.61152162 150.7578125 136.4453125 C152.30606038 140.38102532 154.00390337 144.20186147 155.83203125 148.015625 C156.31994141 149.03914062 156.80785156 150.06265625 157.31054688 151.1171875 C158.32160112 153.22607047 159.34264287 155.33019098 160.37304688 157.4296875 C160.85451172 158.44804687 161.33597656 159.46640625 161.83203125 160.515625 C162.27264893 161.42602539 162.7132666 162.33642578 163.16723633 163.27441406 C164.18837725 166.61654753 163.90836148 168.64686318 163 172 C161.984375 173.8269043 161.984375 173.8269043 160.75 175.32421875 C160.3065625 175.87787109 159.863125 176.43152344 159.40625 177.00195312 C158.9421875 177.55818359 158.478125 178.11441406 158 178.6875 C154.39269814 182.97565889 154.39269814 182.97565889 152 188 C149.44361128 189.15033682 146.99144031 190.09896976 144.34375 190.98828125 C143.56745239 191.25513229 142.79115479 191.52198334 141.99133301 191.79692078 C140.3423841 192.35862782 138.69121616 192.91385547 137.03808594 193.46313477 C134.52910111 194.30276137 132.03468857 195.17822967 129.5390625 196.05664062 C127.93305126 196.59861028 126.32629995 197.13839277 124.71875 197.67578125 C123.98088257 197.93917801 123.24301514 198.20257477 122.48278809 198.47395325 C116.75711485 200.31677863 112.69253893 199.73031064 107 198 C105.88681396 197.70480469 104.77362793 197.40960938 103.62670898 197.10546875 C100.21851789 196.10610834 96.8276662 195.05884643 93.4375 194 C92.25736328 193.66355469 91.07722656 193.32710937 89.86132812 192.98046875 C82.33706922 190.59729553 78.19852887 187.99240183 73.72314453 181.43286133 C71.87359577 178.82153327 69.78622593 176.84948837 67.4375 174.6875 C65.70703125 172.2109375 65.70703125 172.2109375 65 169 C66.57075188 161.54903898 70.56024633 154.72273573 74 148 C75.13047218 145.63628544 76.21947098 143.25653677 77.3125 140.875 C78.13621094 139.13476562 78.13621094 139.13476562 78.9765625 137.359375 C82.86679893 129.05639399 86.51737199 120.64097094 90.23046875 112.2578125 C90.70403809 111.19208008 91.17760742 110.12634766 91.66552734 109.02832031 C92.51714705 107.09573875 93.35724738 105.15801175 94.18212891 103.21386719 C94.53065918 102.39821289 94.87918945 101.58255859 95.23828125 100.7421875 C95.68167847 99.68427002 95.68167847 99.68427002 96.1340332 98.60498047 C97 97 97 97 99 96 C99.72761545 94.2757657 99.72761545 94.2757657 100.30078125 92.16015625 C102.12604726 86.36272543 104.63277307 80.94419386 107.1875 75.4375 C107.65091797 74.42880859 108.11433594 73.42011719 108.59179688 72.38085938 C109.72372338 69.9186275 110.8598525 67.45843306 112 65 C111.07371796 65.00444122 110.14743591 65.00888245 109.19308472 65.01345825 C100.4535751 65.05357201 91.71409652 65.08400327 82.97451591 65.10362434 C78.4816685 65.11405091 73.9888973 65.12818953 69.49609375 65.15087891 C65.15835956 65.17264748 60.82069858 65.18457711 56.48291397 65.18975449 C54.82995578 65.19344303 53.17700149 65.20064585 51.52407455 65.21146011 C49.20460169 65.22602845 46.8854294 65.22797572 44.56591797 65.22705078 C42.58735306 65.23371262 42.58735306 65.23371262 40.56881714 65.24050903 C35.06758188 64.86977085 30.61348054 62.90507741 25.6875 60.5625 C23.79260616 59.70625118 21.89682442 58.85196351 20 58 C19.31421875 57.67257813 18.6284375 57.34515625 17.921875 57.0078125 C7.89468057 52.86271244 -4.23128283 53.53247071 -14.1796875 57.41259766 C-18.65797519 59.32148716 -22.93535941 61.29023961 -27 64 C-29.68605221 64.21299627 -32.27192753 64.31126118 -34.9597168 64.31884766 C-35.76970123 64.32889328 -36.57968567 64.3389389 -37.41421509 64.34928894 C-40.0925424 64.38018937 -42.77076944 64.39717504 -45.44921875 64.4140625 C-47.30582038 64.43276864 -49.16241347 64.45234163 -51.01899719 64.4727478 C-55.90649379 64.52413357 -60.79401797 64.56372477 -65.68164062 64.60089111 C-70.66868957 64.64089039 -75.65562313 64.6920013 -80.64257812 64.7421875 C-90.42830444 64.83902308 -100.21409581 64.92340342 -110 65 C-107.40637504 70.62041678 -104.810244 76.23966694 -102.21191406 81.85791016 C-101.33071219 83.76417702 -100.45016278 85.67074564 -99.5703125 87.57763672 C-93.05831438 101.73236126 -93.05831438 101.73236126 -86.08740234 115.66430664 C-84.52464089 119.02105088 -83.81524809 122.39932091 -83 126 C-82.34 126.33 -81.68 126.66 -81 127 C-80.2109375 128.6875 -80.2109375 128.6875 -79.375 131 C-77.50272943 135.88327287 -75.3671158 140.59178495 -73.125 145.3125 C-72.78138428 146.04041748 -72.43776855 146.76833496 -72.08374023 147.51831055 C-70.45022092 150.97196046 -68.79963227 154.41558177 -67.11328125 157.84375 C-66.28376953 159.56078125 -66.28376953 159.56078125 -65.4375 161.3125 C-64.94121094 162.31925781 -64.44492188 163.32601562 -63.93359375 164.36328125 C-62.9247711 167.21246656 -62.8550381 168.25563255 -64 171 C-72.32469304 184.56616644 -72.32469304 184.56616644 -78 189 C-79.9896995 189.39013716 -81.99019869 189.73202649 -84 190 C-84.33 190.66 -84.66 191.32 -85 192 C-91.5327613 194.57872156 -98.68761148 196.48600868 -105.625 197.5625 C-106.800625 197.7790625 -106.800625 197.7790625 -108 198 C-108.33 198.66 -108.66 199.32 -109 200 C-116.53227367 199.21577819 -123.43573226 197.23684186 -130.62841797 194.92675781 C-132.75373816 194.24880757 -134.88599877 193.59688499 -137.01953125 192.9453125 C-138.38331275 192.51198793 -139.74661267 192.07714418 -141.109375 191.640625 C-142.33624023 191.25422852 -143.56310547 190.86783203 -144.82714844 190.46972656 C-148.37960158 188.82416116 -149.90995578 187.27618008 -152 184 C-152 183.34 -152 182.68 -152 182 C-152.66 182 -153.32 182 -154 182 C-158 176.58823529 -158 176.58823529 -158 174 C-158.66 174 -159.32 174 -160 174 C-161.53522992 171.6520013 -162.01998479 170.30690928 -161.8359375 167.48046875 C-160.67921164 162.66438118 -158.65831848 158.41190925 -156.5625 153.9375 C-155.90012329 152.50168579 -155.90012329 152.50168579 -155.22436523 151.03686523 C-151.65048701 143.31716187 -148.00278722 135.63137556 -144.31274414 127.96655273 C-142.09479203 123.35271835 -139.99821812 118.71454588 -138 114 C-136.49309445 110.59789131 -134.96556305 107.20514895 -133.4375 103.8125 C-132.83905273 102.47928711 -132.83905273 102.47928711 -132.22851562 101.11914062 C-131.84244141 100.26126953 -131.45636719 99.40339844 -131.05859375 98.51953125 C-130.71111084 97.74714111 -130.36362793 96.97475098 -130.00561523 96.17895508 C-129.04437212 94.09614499 -128.0332137 92.04788318 -127 90 C-125.44265685 86.81997316 -123.90755871 83.62953243 -122.375 80.4375 C-121.95476562 79.57447266 -121.53453125 78.71144531 -121.1015625 77.82226562 C-120.70453125 76.99275391 -120.3075 76.16324219 -119.8984375 75.30859375 C-119.35195557 74.17635376 -119.35195557 74.17635376 -118.79443359 73.02124023 C-117.81709904 70.89661346 -117.81709904 70.89661346 -118 68 C-117.34 68 -116.68 68 -116 68 C-115.505 66.02 -115.505 66.02 -115 64 C-116.0725 64.185625 -117.145 64.37125 -118.25 64.5625 C-121.40391546 64.9304568 -123.09818492 65.04465343 -126 64 C-126 63.34 -126 62.68 -126 62 C-124.56445975 61.49440092 -123.1264798 60.9957251 -121.6875 60.5 C-120.88699219 60.2215625 -120.08648437 59.943125 -119.26171875 59.65625 C-117 59 -117 59 -114 59 C-113.505 58.01 -113.505 58.01 -113 57 C-110.3828125 56.1484375 -110.3828125 56.1484375 -107.125 55.375 C-105.52011719 54.98441406 -105.52011719 54.98441406 -103.8828125 54.5859375 C-101 54 -101 54 -98 54 C-97.505 53.01 -97.505 53.01 -97 52 C-94.93875521 51.51983595 -92.87440636 51.05100183 -90.80029297 50.62988281 C-85.29227445 49.3909388 -79.94229549 47.57488592 -74.5625 45.875 C-72.6439098 45.27556342 -70.72531806 44.67613169 -68.80661011 44.07707214 C-64.26688885 42.65828107 -59.72997032 41.23070921 -55.19482422 39.79736328 C-51.63164083 38.6717266 -48.06598099 37.55423583 -44.5 36.4375 C-43.41533447 36.09122559 -42.33066895 35.74495117 -41.21313477 35.38818359 C-40.20436279 35.07316895 -39.19559082 34.7581543 -38.15625 34.43359375 C-37.27775391 34.15572021 -36.39925781 33.87784668 -35.49414062 33.59155273 C-32.85268009 32.96505911 -30.70292448 32.73864494 -28 33 C-25.39453125 35.1875 -25.39453125 35.1875 -22.8125 38 C-21.240436 39.69698063 -19.64296882 41.37157072 -18 43 C-17.34 43 -16.68 43 -16 43 C-15.566875 43.763125 -15.13375 44.52625 -14.6875 45.3125 C-12.78438957 48.34337957 -11.07886657 49.2872863 -8 51 C-8.40992188 49.92621094 -8.81984375 48.85242188 -9.2421875 47.74609375 C-9.78660716 46.30995224 -10.33086961 44.87375113 -10.875 43.4375 C-11.14441406 42.73302734 -11.41382813 42.02855469 -11.69140625 41.30273438 C-12.48254231 39.2091182 -13.24247147 37.10596935 -14 35 C-14.45632813 33.78957031 -14.91265625 32.57914063 -15.3828125 31.33203125 C-16.16649159 27.10115618 -15.34655618 25.7893889 -13 22.25 C-12.34515625 21.22261719 -11.6903125 20.19523437 -11.015625 19.13671875 C-10.35046875 18.10160156 -9.6853125 17.06648438 -9 16 C-7.89804528 14.03114053 -6.81344191 12.0524254 -5.75 10.0625 C-3.91819324 6.65101719 -2.01235313 3.30854529 0 0 Z M-113 90 C-121.08765864 107.26020664 -121.08765864 107.26020664 -128.94458008 124.62597656 C-130.33451436 127.75244451 -131.74018037 130.87170133 -133.14672852 133.99072266 C-134.70142906 137.43865557 -136.25164833 140.88859938 -137.80224609 144.33837891 C-138.59809329 146.10689218 -139.39528522 147.87480096 -140.19384766 149.64208984 C-141.32009977 152.13489255 -142.44174583 154.62972163 -143.5625 157.125 C-143.90893555 157.88868896 -144.25537109 158.65237793 -144.61230469 159.43920898 C-146.37705067 163.07579527 -146.37705067 163.07579527 -147 167 C-124.23 167 -101.46 167 -78 167 C-81.01644315 159.76053645 -84.037333 152.57559117 -87.29296875 145.44921875 C-88.09206045 143.69060128 -88.891132 141.93197465 -89.69018555 140.17333984 C-90.09892914 139.27556824 -90.50767273 138.37779663 -90.92880249 137.45281982 C-98.10026871 121.6973285 -105.19548848 105.91800896 -112 90 C-112.33 90 -112.66 90 -113 90 Z M114 90 C102.59145931 115.63424413 91.24636778 141.29401651 80 167 C103.1 167 126.2 167 150 167 C144.0868113 153.81832231 144.0868113 153.81832231 138.0625 140.6875 C135.33653014 134.81386328 132.76041558 128.87923402 130.1875 122.9375 C126.81257803 115.15744367 123.43648935 107.37809828 120 99.625 C119.62641357 98.76898193 119.25282715 97.91296387 118.86791992 97.03100586 C118.34548706 95.8593689 118.34548706 95.8593689 117.8125 94.6640625 C117.50957031 93.97779785 117.20664062 93.2915332 116.89453125 92.58447266 C116.08802417 90.81108995 116.08802417 90.81108995 114 90 Z " fill="#28943E" transform="translate(297,47)"/>
<path d="M0 0 C4.5620067 3.27621421 8.00710116 6.94561988 9.78613281 12.28271484 C10.44613281 12.61271484 11.10613281 12.94271484 11.78613281 13.28271484 C12.85644531 15.42724609 12.85644531 15.42724609 13.91113281 18.09521484 C14.26433594 18.96791016 14.61753906 19.84060547 14.98144531 20.73974609 C15.78613281 23.28271484 15.78613281 23.28271484 15.78613281 27.28271484 C16.44613281 27.61271484 17.10613281 27.94271484 17.78613281 28.28271484 C17.19287922 43.62548004 15.02212533 56.83650622 3.28613281 67.90771484 C-11.94926865 80.28271484 -11.94926865 80.28271484 -18.21386719 80.28271484 C-18.21386719 80.94271484 -18.21386719 81.60271484 -18.21386719 82.28271484 C-19.50300206 82.95426417 -20.79526923 83.61980343 -22.08886719 84.28271484 C-22.80816406 84.65396484 -23.52746094 85.02521484 -24.26855469 85.40771484 C-26.21386719 86.28271484 -26.21386719 86.28271484 -28.21386719 86.28271484 C-28.21386719 86.94271484 -28.21386719 87.60271484 -28.21386719 88.28271484 C-29.46103516 88.86279297 -29.46103516 88.86279297 -30.73339844 89.45458984 C-31.82007813 89.97537109 -32.90675781 90.49615234 -34.02636719 91.03271484 C-35.1053125 91.54318359 -36.18425781 92.05365234 -37.29589844 92.57958984 C-40.31519377 94.34185593 -41.47547068 95.30800627 -43.21386719 98.28271484 C-43.70145578 101.40685624 -43.70145578 101.40685624 -43.69042969 104.87646484 C-43.73683594 106.79265625 -43.73683594 106.79265625 -43.78417969 108.74755859 C-43.80315619 110.09260034 -43.82137782 111.43765294 -43.83886719 112.78271484 C-43.88709891 115.41832465 -43.94442385 118.05354275 -44.00292969 120.68896484 C-44.0292749 122.44176758 -44.0292749 122.44176758 -44.05615234 124.22998047 C-44.1871335 126.76525652 -44.47406237 128.86963033 -45.21386719 131.28271484 C-51.11096422 129.68235134 -56.01320417 126.7041406 -61.21386719 123.59521484 C-62.52871094 122.83821289 -62.52871094 122.83821289 -63.87011719 122.06591797 C-72.91011865 116.68139903 -78.53480023 110.64378287 -81.21386719 100.28271484 C-81.78190656 94.2254738 -81.75390583 88.20165696 -81.70996094 82.12255859 C-81.71011621 80.36479126 -81.71160978 78.60702359 -81.71437073 76.84925842 C-81.715749 73.18035593 -81.70329192 69.51184708 -81.68041992 65.84301758 C-81.65201599 61.16044046 -81.65478603 56.47851539 -81.66751003 51.79588985 C-81.67449242 48.17113253 -81.66664915 44.5465237 -81.65425301 40.92178535 C-81.64976483 39.1959649 -81.64937845 37.47012836 -81.65331841 35.74430656 C-81.66865479 23.11969303 -81.240602 13.36848642 -72.06542969 3.77490234 C-49.26266645 -16.15408799 -24.74618995 -16.34262033 0 0 Z M-57.21386719 14.28271484 C-57.21386719 14.94271484 -57.21386719 15.60271484 -57.21386719 16.28271484 C-58.20386719 16.61271484 -59.19386719 16.94271484 -60.21386719 17.28271484 C-64.49671363 24.9884513 -63.61113564 33.73883106 -63.54199219 42.29443359 C-63.53892996 43.95253833 -63.53705737 45.61064565 -63.53631592 47.26875305 C-63.53173066 50.73094648 -63.51737104 54.19290502 -63.49511719 57.6550293 C-63.46676993 62.0867862 -63.45589669 66.51835919 -63.45143509 70.95019817 C-63.44727447 74.36887945 -63.43745267 77.78752387 -63.42556 81.20618629 C-63.41987572 82.84041871 -63.415111 84.4746546 -63.41129303 86.10889244 C-63.40439986 88.3917497 -63.39075477 90.67446417 -63.375 92.95727539 C-63.368172 94.25440964 -63.36134399 95.55154388 -63.35430908 96.88798523 C-63.23300035 99.82023227 -62.89661177 102.4368471 -62.21386719 105.28271484 C-61.88386719 105.28271484 -61.55386719 105.28271484 -61.21386719 105.28271484 C-61.1275 104.67685547 -61.04113281 104.07099609 -60.95214844 103.44677734 C-59.94612668 97.44756506 -58.15725806 92.64752129 -55.23730469 87.31396484 C-54.06388074 85.36411702 -54.06388074 85.36411702 -54.21386719 83.28271484 C-53.63282227 82.99895996 -53.05177734 82.71520508 -52.453125 82.42285156 C-50.37654205 81.3655421 -48.38497854 80.23634637 -46.38574219 79.04052734 C-45.66773438 78.61384766 -44.94972656 78.18716797 -44.20996094 77.74755859 C-42.72752615 76.86325402 -41.24574092 75.97785951 -39.76464844 75.09130859 C-35.00628912 72.26682793 -30.19039361 69.7034234 -25.21386719 67.28271484 C-25.21386719 66.62271484 -25.21386719 65.96271484 -25.21386719 65.28271484 C-24.47910156 65.17056641 -23.74433594 65.05841797 -22.98730469 64.94287109 C-15.1978602 63.08876388 -8.61482199 56.75891663 -4.21386719 50.28271484 C-0.39754399 43.01676142 0.21970492 34.24973932 -2.04589844 26.39990234 C-3.47634861 22.72466332 -5.02250721 19.56975482 -7.21386719 16.28271484 C-7.87386719 16.28271484 -8.53386719 16.28271484 -9.21386719 16.28271484 C-9.46652344 15.67685547 -9.71917969 15.07099609 -9.97949219 14.44677734 C-11.38407785 11.98430754 -12.55344006 11.10583967 -14.96386719 9.65771484 C-15.61871094 9.25294922 -16.27355469 8.84818359 -16.94824219 8.43115234 C-28.83178876 2.40742357 -48.22749288 3.32372179 -57.21386719 14.28271484 Z " fill="#27953E" transform="translate(333.2138671875,117.71728515625)"/>
<path d="M0 0 C0.08564209 0.83772949 0.17128418 1.67545898 0.25952148 2.53857422 C0.57883319 5.64372429 0.90163045 8.74848637 1.22680664 11.85302734 C1.36688061 13.19728302 1.50556043 14.54168473 1.64282227 15.88623047 C1.84025172 17.81776053 2.04309615 19.74873469 2.24609375 21.6796875 C2.36654053 22.84226074 2.4869873 24.00483398 2.61108398 25.20263672 C2.84081102 27.94811039 2.84081102 27.94811039 4 30 C4.103125 31.216875 4.20625 32.43375 4.3125 33.6875 C5.36146446 44.01064234 9.00376856 54.09935446 12 64 C12.8564209 63.95286865 13.7128418 63.9057373 14.59521484 63.85717773 C17.81928733 63.70239613 21.04144999 63.59032803 24.26806641 63.50561523 C25.65542444 63.46076322 27.04236712 63.39964814 28.42822266 63.32104492 C39.9210086 62.68624483 39.9210086 62.68624483 45.05639648 65.93139648 C47.53261802 68.17771737 49.75036397 70.53086776 52 73 C53.40938384 74.09952248 54.84263472 75.17024459 56.3125 76.1875 C59.85655972 78.7682656 62.41910424 81.45126833 65 85 C65 85.66 65 86.32 65 87 C17.15 87 -30.7 87 -80 87 C-80.495 87.99 -80.495 87.99 -81 89 C-81 88.34 -81 87.68 -81 87 C-85.29 87 -89.58 87 -94 87 C-93.29617187 86.29746094 -92.59234375 85.59492188 -91.8671875 84.87109375 C-89.9487929 82.95337416 -88.03824792 81.02824806 -86.1328125 79.09765625 C-85.13023213 78.08591392 -84.12762772 77.07419541 -83.125 76.0625 C-82.63386719 75.56298828 -82.14273438 75.06347656 -81.63671875 74.54882812 C-80.62534009 73.53088207 -79.59925865 72.52735674 -78.55981445 71.53808594 C-76.96993224 70.02685325 -76.96993224 70.02685325 -75.61791992 68.29785156 C-72.77795164 65.17725036 -70.77934784 64.10618972 -66.54003906 63.52856445 C-62.37527592 63.33633313 -58.22642827 63.47566774 -54.0625 63.625 C-52.60096634 63.65513471 -51.1393729 63.68250437 -49.67773438 63.70703125 C-46.11723626 63.77275781 -42.55900308 63.87608149 -39 64 C-38.85506104 62.91775146 -38.71012207 61.83550293 -38.56079102 60.72045898 C-38.00005 57.00033169 -37.08156052 53.64230228 -35.9375 50.0625 C-35.39416016 48.34740234 -35.39416016 48.34740234 -34.83984375 46.59765625 C-34.56269531 45.74042969 -34.28554688 44.88320312 -34 44 C-30.19331943 45.04683716 -27.08568149 46.4689702 -23.78125 48.58203125 C-23.07033203 49.03425049 -22.35941406 49.48646973 -21.62695312 49.95239258 C-20.82161133 50.47095825 -20.82161133 50.47095825 -20 51 C-19.99589111 49.8447583 -19.99178223 48.6895166 -19.98754883 47.49926758 C-19.96573676 43.20308131 -19.91142598 38.90780821 -19.84741211 34.61206055 C-19.82425012 32.75472787 -19.8098406 30.89726418 -19.80444336 29.03979492 C-19.79514038 26.365545 -19.75412303 23.69335032 -19.70703125 21.01953125 C-19.7109639 20.19226028 -19.71489655 19.36498932 -19.71894836 18.51264954 C-19.6108333 14.21717523 -19.40759805 12.50842582 -16.63232422 9.04663086 C-13.95154126 6.96232335 -11.3259654 5.31223309 -8.3125 3.75 C-7.35988281 3.24984375 -6.40726562 2.7496875 -5.42578125 2.234375 C-1.03481013 0 -1.03481013 0 0 0 Z " fill="#24943C" transform="translate(312,206)"/>
<path d="M0 0 C5.01656959 1.4333056 7.01452882 3.90563952 10 8 C10 8.66 10 9.32 10 10 C0.47918084 10.03063456 -9.04164033 10.05098866 -18.5625 10.0625 C-19.61700726 10.06378403 -19.61700726 10.06378403 -20.69281769 10.06509399 C-44.14172482 10.09032026 -67.56379295 9.82866408 -91 9 C-91 8.67 -91 8.34 -91 8 C-42.985 7.505 -42.985 7.505 6 7 C4.02 4.69 2.04 2.38 0 0 Z " fill="#248737" transform="translate(367,283)"/>
<path d="M0 0 C5.93002267 -0.37851209 10.47239641 0.89424625 16 3 C16 3.66 16 4.32 16 5 C12.04 5 8.08 5 4 5 C4.66 6.65 5.32 8.3 6 10 C4.68 9.67 3.36 9.34 2 9 C2 9.99 2 10.98 2 12 C1.01 12.66 0.02 13.32 -1 14 C-1.99 13.67 -2.98 13.34 -4 13 C-3.01 10.69 -2.02 8.38 -1 6 C-12.71306313 4.71067714 -24.48019704 4.66323992 -36.25 4.4375 C-38.36328829 4.39422281 -40.47656966 4.35060588 -42.58984375 4.30664062 C-47.72649095 4.20050794 -52.8632102 4.09898027 -58 4 C-58 3.67 -58 3.34 -58 3 C-38.2 3 -18.4 3 2 3 C2 2.34 2 1.68 2 1 C1.34 0.67 0.68 0.34 0 0 Z " fill="#308D44" transform="translate(410,106)"/>
<path d="M0 0 C2.23828125 1.75 2.23828125 1.75 4.3125 4 C5.00988281 4.7425 5.70726562 5.485 6.42578125 6.25 C7.20501953 7.11625 7.20501953 7.11625 8 8 C7.67 8.66 7.34 9.32 7 10 C6.154375 9.01 5.30875 8.02 4.4375 7 C2.09177914 4.70857823 1.24749132 4.05050843 -2.0625 3.375 C-6.84363087 4.13390966 -11.24636079 5.54496027 -15.81640625 7.125 C-19.03406353 8.00936225 -21.68173295 8.15967601 -25 8 C-24 6 -24 6 -22.22167969 5.22216797 C-21.46274414 4.98127441 -20.70380859 4.74038086 -19.921875 4.4921875 C-19.09042969 4.22792969 -18.25898438 3.96367188 -17.40234375 3.69140625 C-16.52707031 3.42199219 -15.65179688 3.15257813 -14.75 2.875 C-13.89019531 2.59785156 -13.03039062 2.32070312 -12.14453125 2.03515625 C-7.97463493 0.73085894 -4.41671879 -0.35121007 0 0 Z " fill="#258839" transform="translate(269,80)"/>
<path d="M0 0 C0.33 0 0.66 0 1 0 C1.01030746 0.71552536 1.02061493 1.43105072 1.03123474 2.16825867 C1.12933675 8.9214883 1.23186888 15.67463458 1.33933926 22.42772198 C1.39443147 25.89929328 1.44782891 29.37087319 1.49731445 32.8425293 C1.55432045 36.83651547 1.61876738 40.8303518 1.68359375 44.82421875 C1.70030624 46.06709152 1.71701874 47.30996429 1.73423767 48.59049988 C1.75418289 49.75132584 1.77412811 50.91215179 1.79467773 52.1081543 C1.81022202 53.12741501 1.8257663 54.14667572 1.84178162 55.19682312 C1.92870313 58.00026484 1.92870313 58.00026484 2.57142639 60.69245911 C3.12489999 63.67249088 2.30165931 65.32011319 1 68 C0.67 68 0.34 68 0 68 C0 45.56 0 23.12 0 0 Z " fill="#308842" transform="translate(268,147)"/>
<path d="M0 0 C0.66 0 1.32 0 2 0 C1.54177532 3.46941546 1.10868317 6.67395049 0 10 C4.29238623 8.34908222 6.8793915 5.26245434 10 2 C10.66 2.33 11.32 2.66 12 3 C10.61714856 4.49131037 9.21814261 5.96765185 7.8125 7.4375 C7.03519531 8.26121094 6.25789063 9.08492187 5.45703125 9.93359375 C2.8538199 12.12294002 1.33772044 12.67393495 -2 13 C-3.125 8.25 -3.125 8.25 -2 6 C-1.34 6 -0.68 6 0 6 C-0.2784375 4.7934375 -0.2784375 4.7934375 -0.5625 3.5625 C-0.706875 2.716875 -0.85125 1.87125 -1 1 C-0.67 0.67 -0.34 0.34 0 0 Z " fill="#228436" transform="translate(308,87)"/>
<path d="M0 0 C0.66 0.33 1.32 0.66 2 1 C2.08107583 2.93681161 2.13922475 4.8745934 2.1875 6.8125 C2.23970703 8.43091797 2.23970703 8.43091797 2.29296875 10.08203125 C2 13 2 13 0.48828125 14.88671875 C-0.00285156 15.25410156 -0.49398438 15.62148437 -1 16 C-1.02701408 13.89590361 -1.04640223 11.79170822 -1.0625 9.6875 C-1.07410156 8.51574219 -1.08570313 7.34398437 -1.09765625 6.13671875 C-1 3 -1 3 0 0 Z " fill="#329245" transform="translate(348,148)"/>
<path d="M0 0 C0.99 0.33 1.98 0.66 3 1 C2.835 1.53625 2.67 2.0725 2.5 2.625 C1.88459283 5.10533398 1.88459283 5.10533398 2.0625 8.125 C2 11 2 11 0 13 C0 12.34 0 11.68 0 11 C-0.66 11 -1.32 11 -2 11 C-1.85892253 9.54119891 -1.71197585 8.08296449 -1.5625 6.625 C-1.48128906 5.81289062 -1.40007812 5.00078125 -1.31640625 4.1640625 C-1 2 -1 2 0 0 Z " fill="#26883A" transform="translate(254,131)"/>
<path d="M0 0 C2.97 0.495 2.97 0.495 6 1 C6.33 1.99 6.66 2.98 7 4 C5.68 3.67 4.36 3.34 3 3 C3 3.99 3 4.98 3 6 C2.01 6.66 1.02 7.32 0 8 C-0.99 7.67 -1.98 7.34 -3 7 C-2.01 4.69 -1.02 2.38 0 0 Z " fill="#258638" transform="translate(409,112)"/>
<path d="M0 0 C0.99 0.33 1.98 0.66 3 1 C2.34 1.66 1.68 2.32 1 3 C-0.03842565 5.31648799 -1.0421975 7.64903024 -2 10 C-2.66 10 -3.32 10 -4 10 C-4.66 11.65 -5.32 13.3 -6 15 C-6.66 15 -7.32 15 -8 15 C-6.62712658 11.30123909 -4.93644547 8.0485524 -2.875 4.6875 C-2.33617187 3.80449219 -1.79734375 2.92148437 -1.2421875 2.01171875 C-0.83226562 1.34785156 -0.42234375 0.68398438 0 0 Z " fill="#248539" transform="translate(297,47)"/>
<path d="M0 0 C-5.5626148 2.66038099 -10.93267948 3.96232949 -17 5 C-16.67 4.01 -16.34 3.02 -16 2 C-11.60416479 0.07012113 -4.50180568 -2.25090284 0 0 Z " fill="#238735" transform="translate(436,239)"/>
<path d="M0 0 C0.66 0.33 1.32 0.66 2 1 C1 4 1 4 -1.8125 5.5625 C-2.864375 6.036875 -3.91625 6.51125 -5 7 C-5.78375 7.391875 -6.5675 7.78375 -7.375 8.1875 C-7.91125 8.455625 -8.4475 8.72375 -9 9 C-9 8.01 -9 7.02 -9 6 C-7.03125 4.39453125 -7.03125 4.39453125 -4.5 2.8125 C-3.6646875 2.28269531 -2.829375 1.75289062 -1.96875 1.20703125 C-1.3190625 0.80871094 -0.669375 0.41039062 0 0 Z " fill="#218537" transform="translate(288,195)"/>
<path d="M0 0 C3.96 0.33 7.92 0.66 12 1 C9.87033995 3.12966005 8.95931796 3.47624662 6.125 4.1875 C5.44695312 4.36667969 4.76890625 4.54585938 4.0703125 4.73046875 C1.77181444 5.02970718 0.19449036 4.69377386 -2 4 C-1.34 2.68 -0.68 1.36 0 0 Z " fill="#238135" transform="translate(286,98)"/>
<path d="M0 0 C1.875 0.25 1.875 0.25 4 1 C5.3125 2.8125 5.3125 2.8125 6 5 C5.625 7.25 5.625 7.25 5 9 C4.67 7.68 4.34 6.36 4 5 C1.36 5 -1.28 5 -4 5 C-3.34 4.67 -2.68 4.34 -2 4 C-2 3.34 -2 2.68 -2 2 C-1.34 2 -0.68 2 0 2 C0 1.34 0 0.68 0 0 Z " fill="#217F32" transform="translate(183,111)"/>
<path d="M0 0 C0.66 0 1.32 0 2 0 C1.855625 0.61488281 1.71125 1.22976562 1.5625 1.86328125 C1.376875 2.67152344 1.19125 3.47976562 1 4.3125 C0.814375 5.11300781 0.62875 5.91351563 0.4375 6.73828125 C-0.09495823 9.10695938 -0.09495823 9.10695938 0 12 C0.99 12.33 1.98 12.66 3 13 C1.68 13.33 0.36 13.66 -1 14 C-2.70097842 11.39850359 -3.01268885 10.15226623 -2.75 7 C-2.09449955 4.37799822 -1.34306681 2.32798248 0 0 Z " fill="#258738" transform="translate(138,207)"/>
<path d="M0 0 C0.33 0.66 0.66 1.32 1 2 C-0.54061886 5.62045432 -2.09231637 8.35665124 -5 11 C-5.33 11.66 -5.66 12.32 -6 13 C-6.99 13 -7.98 13 -9 13 C-7.50923566 9.7173068 -5.61379679 7.06922559 -3.375 4.25 C-2.74335938 3.45078125 -2.11171875 2.6515625 -1.4609375 1.828125 C-0.97882813 1.22484375 -0.49671875 0.6215625 0 0 Z " fill="#228637" transform="translate(330,165)"/>
<path d="M0 0 C5.01656959 1.4333056 7.01452882 3.90563952 10 8 C10 8.66 10 9.32 10 10 C7.36 9.67 4.72 9.34 2 9 C3.32 8.34 4.64 7.68 6 7 C4.02 4.69 2.04 2.38 0 0 Z " fill="#1D7F30" transform="translate(367,283)"/>
<path d="M0 0 C0.66 0 1.32 0 2 0 C1.77169299 1.62818946 1.51656424 3.2526349 1.25 4.875 C1.11078125 5.77992188 0.9715625 6.68484375 0.828125 7.6171875 C0 10 0 10 -2.078125 11.3203125 C-2.71234375 11.54460937 -3.3465625 11.76890625 -4 12 C-3.71640113 10.5608866 -3.42278601 9.12374482 -3.125 7.6875 C-2.96257812 6.88699219 -2.80015625 6.08648437 -2.6328125 5.26171875 C-2 3 -2 3 0 0 Z " fill="#258739" transform="translate(159,161)"/>
<path d="M0 0 C3.46941546 0.45822468 6.67395049 0.89131683 10 2 C10 2.66 10 3.32 10 4 C7.03 4 4.06 4 1 4 C0.67 2.68 0.34 1.36 0 0 Z " fill="#277A38" transform="translate(416,107)"/>
<path d="M0 0 C0.99 0.33 1.98 0.66 3 1 C3.33 3.31 3.66 5.62 4 8 C3.34 8 2.68 8 2 8 C1.34 6.68 0.68 5.36 0 4 C-0.33 4.99 -0.66 5.98 -1 7 C-1.66 7 -2.32 7 -3 7 C-2.625 4.0625 -2.625 4.0625 -2 1 C-1.34 0.67 -0.68 0.34 0 0 Z " fill="#238636" transform="translate(184,134)"/>
<path d="M0 0 C-0.33 0.99 -0.66 1.98 -1 3 C-3.0625 3.6875 -3.0625 3.6875 -5 4 C-5.33 5.32 -5.66 6.64 -6 8 C-7.32 8.33 -8.64 8.66 -10 9 C-4.2 0 -4.2 0 0 0 Z " fill="#2E9145" transform="translate(231,283)"/>
<path d="M0 0 C2.40072955 2.88087546 4.47291037 5.56404834 6 9 C2.63820226 7.55922954 0.40843732 5.75249979 -2 3 C-2 2.34 -2 1.68 -2 1 C-1.34 0.67 -0.68 0.34 0 0 Z " fill="#339445" transform="translate(280,90)"/>
<path d="M0 0 C1.45880109 0.14107747 2.91703551 0.28802415 4.375 0.4375 C5.59316406 0.55931641 5.59316406 0.55931641 6.8359375 0.68359375 C9 1 9 1 11 2 C11 2.66 11 3.32 11 4 C11.66 4.33 12.32 4.66 13 5 C11.3934324 4.74379316 9.7897517 4.46944129 8.1875 4.1875 C7.29417969 4.03667969 6.40085938 3.88585937 5.48046875 3.73046875 C2.81678744 2.94604607 1.74309678 2.11372201 0 0 Z " fill="#208231" transform="translate(161,238)"/>
<path d="M0 0 C-0.33 1.32 -0.66 2.64 -1 4 C-3.33333333 4 -5.66666667 4 -8 4 C-8 3.34 -8 2.68 -8 2 C-3.61016949 -1.20338983 -3.61016949 -1.20338983 0 0 Z " fill="#228436" transform="translate(310,209)"/>
<path d="M0 0 C0.99 0.33 1.98 0.66 3 1 C1.71034824 2.37562854 0.37310707 3.70766393 -1 5 C-1.66 5 -2.32 5 -3 5 C-3 5.66 -3 6.32 -3 7 C-3.99 6.67 -4.98 6.34 -6 6 C-5.67 5.01 -5.34 4.02 -5 3 C-3.35 2.67 -1.7 2.34 0 2 C0 1.34 0 0.68 0 0 Z " fill="#2F9446" transform="translate(308,199)"/>
<path d="M0 0 C-2.25 2.0625 -2.25 2.0625 -5 4 C-7.3125 3.75 -7.3125 3.75 -9 3 C-9 2.34 -9 1.68 -9 1 C-5.57367167 -0.61798838 -3.61944899 -1.34053666 0 0 Z " fill="#277837" transform="translate(180,108)"/>
<path d="M0 0 C8.57142857 3 8.57142857 3 12 6 C7.27536912 5.53680089 3.82942948 4.90108294 0 2 C0 1.34 0 0.68 0 0 Z " fill="#208334" transform="translate(375,232)"/>
<path d="M0 0 C-0.33 0.99 -0.66 1.98 -1 3 C-3.97 3 -6.94 3 -10 3 C-8.0130571 -0.97388579 -3.91761109 -0.08705802 0 0 Z " fill="#228334" transform="translate(296,106)"/>
<path d="M0 0 C2.1875 0.3125 2.1875 0.3125 4 1 C3.34 1 2.68 1 2 1 C2 1.66 2 2.32 2 3 C-1.96 4.98 -1.96 4.98 -6 7 C-6 6.01 -6 5.02 -6 4 C-5.01 3.67 -4.02 3.34 -3 3 C-2.525625 2.46375 -2.05125 1.9275 -1.5625 1.375 C-0.7890625 0.694375 -0.7890625 0.694375 0 0 Z " fill="#238436" transform="translate(300,204)"/>
<path d="M0 0 C3.63 0 7.26 0 11 0 C11 0.66 11 1.32 11 2 C7.18243176 3.37432457 3.92744671 2.67975039 0 2 C0 1.34 0 0.68 0 0 Z " fill="#359848" transform="translate(296,121)"/>
<path d="M0 0 C0.99 0.33 1.98 0.66 3 1 C3.73046875 3.06640625 3.73046875 3.06640625 4.1875 5.5625 C4.34605469 6.38878906 4.50460938 7.21507812 4.66796875 8.06640625 C4.77753906 8.70449219 4.88710937 9.34257812 5 10 C4.34 10 3.68 10 3 10 C0 3.375 0 3.375 0 0 Z " fill="#238436" transform="translate(188,143)"/>
<path d="M0 0 C2.97 0.33 5.94 0.66 9 1 C9.33 2.32 9.66 3.64 10 5 C5.05 3.02 5.05 3.02 0 1 C0 0.67 0 0.34 0 0 Z " fill="#278939" transform="translate(307,122)"/>
<path d="M0 0 C0 0.66 0 1.32 0 2 C-3.82320557 3.42258812 -6.91281305 4.24042276 -11 4 C-5 0 -5 0 0 0 Z " fill="#258437" transform="translate(296,121)"/>
<path d="M0 0 C4.75 0.875 4.75 0.875 7 2 C7 2.99 7 3.98 7 5 C4.03 4.505 4.03 4.505 1 4 C0.67 2.68 0.34 1.36 0 0 Z " fill="#268939" transform="translate(315,109)"/>
<path d="M0 0 C2.9375 0.8125 2.9375 0.8125 6 2 C6.33 2.99 6.66 3.98 7 5 C5.68 5 4.36 5 3 5 C3 4.34 3 3.68 3 3 C2.01 2.67 1.02 2.34 0 2 C0 1.34 0 0.68 0 0 Z " fill="#2C8C41" transform="translate(278,250)"/>
<path d="M0 0 C1.32 0 2.64 0 4 0 C5.0625 1.8125 5.0625 1.8125 6 4 C5.67 4.99 5.34 5.98 5 7 C3.5 5.6875 3.5 5.6875 2 4 C2 3.01 2 2.02 2 1 C1.34 0.67 0.68 0.34 0 0 Z " fill="#248739" transform="translate(215,182)"/>
<path d="M0 0 C0.66 0 1.32 0 2 0 C2.99 2.64 3.98 5.28 5 8 C4.01 8 3.02 8 2 8 C0.23537317 4.91190305 0 3.76687864 0 0 Z " fill="#268939" transform="translate(198,165)"/>
<path d="M0 0 C0.66 0 1.32 0 2 0 C1.67 1.65 1.34 3.3 1 5 C0.01 5 -0.98 5 -2 5 C-2.99 5.495 -2.99 5.495 -4 6 C-2.84826645 3.53199953 -1.95216435 1.95216435 0 0 Z " fill="#197E2D" transform="translate(235,276)"/>
<path d="M0 0 C1.125 1.625 1.125 1.625 2 4 C1.125 7.25 1.125 7.25 0 10 C-0.33 10 -0.66 10 -1 10 C-1.02689216 8.52093108 -1.04634621 7.04172517 -1.0625 5.5625 C-1.07410156 4.73878906 -1.08570313 3.91507813 -1.09765625 3.06640625 C-1 1 -1 1 0 0 Z " fill="#28893D" transform="translate(269,205)"/>
<path d="M0 0 C0.66 0 1.32 0 2 0 C2.99 2.31 3.98 4.62 5 7 C4.01 7.495 4.01 7.495 3 8 C3 7.34 3 6.68 3 6 C2.34 6 1.68 6 1 6 C0.67 4.02 0.34 2.04 0 0 Z " fill="#248437" transform="translate(224,197)"/>
<path d="M0 0 C0.66 0.33 1.32 0.66 2 1 C-0.75 7.75 -0.75 7.75 -3 10 C-2.49287967 6.28111761 -1.88391785 3.26545761 0 0 Z " fill="#228335" transform="translate(164,150)"/>
<path d="M0 0 C0.66 0.33 1.32 0.66 2 1 C-0.75 7.75 -0.75 7.75 -3 10 C-2.49287967 6.28111761 -1.88391785 3.26545761 0 0 Z " fill="#218234" transform="translate(404,123)"/>
<path d="" fill="#2B9841" transform="translate(0,0)"/>
<path d="" fill="#2C9742" transform="translate(0,0)"/>
<path d="M0 0 C2 1 2 1 2 1 Z " fill="#2B9340" transform="translate(428,245)"/>
<path d="" fill="#2A9440" transform="translate(0,0)"/>
<path d="" fill="#147627" transform="translate(0,0)"/>
<path d="" fill="#2B9140" transform="translate(0,0)"/>
<path d="" fill="#309246" transform="translate(0,0)"/>
<path d="" fill="#2A953F" transform="translate(0,0)"/>
<path d="M0 0 C2 1 2 1 2 1 Z " fill="#2D9442" transform="translate(194,175)"/>
<path d="M0 0 C2 1 2 1 2 1 Z " fill="#2A8E3E" transform="translate(192,161)"/>
<path d="" fill="#2D9242" transform="translate(0,0)"/>
<path d="M0 0 C2 1 2 1 2 1 Z " fill="#278039" transform="translate(170,107)"/>
<path d="" fill="#288E3D" transform="translate(0,0)"/>
<path d="" fill="#2C9540" transform="translate(0,0)"/>
<path d="" fill="#29903E" transform="translate(0,0)"/>
<path d="" fill="#2A7E3B" transform="translate(0,0)"/>
<path d="" fill="#28903E" transform="translate(0,0)"/>
<path d="" fill="#29933F" transform="translate(0,0)"/>
<path d="" fill="#29933F" transform="translate(0,0)"/>
<path d="" fill="#29933F" transform="translate(0,0)"/>
<path d="" fill="#278A3C" transform="translate(0,0)"/>
<path d="" fill="#197E2E" transform="translate(0,0)"/>
<path d="" fill="#28913E" transform="translate(0,0)"/>
<path d="" fill="#268C39" transform="translate(0,0)"/>
<path d="" fill="#309542" transform="translate(0,0)"/>
<path d="" fill="#208435" transform="translate(0,0)"/>
<path d="" fill="#29913F" transform="translate(0,0)"/>
<path d="" fill="#076915" transform="translate(0,0)"/>
<path d="" fill="#278A3C" transform="translate(0,0)"/>
<path d="" fill="#268A3B" transform="translate(0,0)"/>
<path d="" fill="#278A3C" transform="translate(0,0)"/>
<path d="" fill="#248638" transform="translate(0,0)"/>
<path d="" fill="#278A3C" transform="translate(0,0)"/>
<path d="" fill="#29913F" transform="translate(0,0)"/>
<path d="" fill="#29913F" transform="translate(0,0)"/>
<path d="" fill="#2F8A43" transform="translate(0,0)"/>
<path d="" fill="#2A9340" transform="translate(0,0)"/>
<path d="" fill="#288B3D" transform="translate(0,0)"/>
<path d="" fill="#046E17" transform="translate(0,0)"/>
<path d="" fill="#288B3D" transform="translate(0,0)"/>
<path d="" fill="#298D3D" transform="translate(0,0)"/>
<path d="" fill="#1F8231" transform="translate(0,0)"/>
<path d="" fill="#2C9B43" transform="translate(0,0)"/>
<path d="" fill="#278839" transform="translate(0,0)"/>
<path d="" fill="#288B3C" transform="translate(0,0)"/>
<path d="" fill="#25913B" transform="translate(0,0)"/>
<path d="" fill="#278B3D" transform="translate(0,0)"/>
<path d="" fill="#288B3D" transform="translate(0,0)"/>
<path d="" fill="#288B3D" transform="translate(0,0)"/>
<path d="" fill="#1A822F" transform="translate(0,0)"/>
<path d="" fill="#2B9B43" transform="translate(0,0)"/>
<path d="" fill="#2C9A44" transform="translate(0,0)"/>
<path d="" fill="#2C8A3F" transform="translate(0,0)"/>
<path d="" fill="#248737" transform="translate(0,0)"/>
<path d="" fill="#288B3D" transform="translate(0,0)"/>
<path d="" fill="#2A8B3D" transform="translate(0,0)"/>
<path d="" fill="#2E9242" transform="translate(0,0)"/>
<path d="" fill="#278A3C" transform="translate(0,0)"/>
<path d="" fill="#299340" transform="translate(0,0)"/>
<path d="" fill="#248537" transform="translate(0,0)"/>
<path d="" fill="#278B3C" transform="translate(0,0)"/>
<path d="" fill="#2C8E40" transform="translate(0,0)"/>
<path d="" fill="#33A34B" transform="translate(0,0)"/>
<path d="" fill="#248638" transform="translate(0,0)"/>
<path d="" fill="#278B3C" transform="translate(0,0)"/>
<path d="" fill="#288B3D" transform="translate(0,0)"/>
<path d="" fill="#2B9642" transform="translate(0,0)"/>
<path d="" fill="#2C9043" transform="translate(0,0)"/>
<path d="" fill="#2F9346" transform="translate(0,0)"/>
<path d="" fill="#2C9842" transform="translate(0,0)"/>
<path d="" fill="#1D8031" transform="translate(0,0)"/>
<path d="" fill="#298C3F" transform="translate(0,0)"/>
<path d="" fill="#32A249" transform="translate(0,0)"/>
<path d="" fill="#27853A" transform="translate(0,0)"/>
<path d="" fill="#2B9140" transform="translate(0,0)"/>
<path d="" fill="#298B3E" transform="translate(0,0)"/>
<path d="" fill="#2B9140" transform="translate(0,0)"/>
<path d="" fill="#2B9140" transform="translate(0,0)"/>
<path d="" fill="#288B3C" transform="translate(0,0)"/>
<path d="" fill="#2A8D41" transform="translate(0,0)"/>
<path d="" fill="#288A3D" transform="translate(0,0)"/>
<path d="" fill="#238537" transform="translate(0,0)"/>
<path d="" fill="#228336" transform="translate(0,0)"/>
<path d="" fill="#2A8B3E" transform="translate(0,0)"/>
<path d="" fill="#248639" transform="translate(0,0)"/>
<path d="" fill="#2A863E" transform="translate(0,0)"/>
<path d="" fill="#298B3E" transform="translate(0,0)"/>
<path d="" fill="#2A8F40" transform="translate(0,0)"/>
<path d="" fill="#298A3D" transform="translate(0,0)"/>
<path d="" fill="#2A8B3E" transform="translate(0,0)"/>
<path d="" fill="#2B9140" transform="translate(0,0)"/>
<path d="" fill="#238436" transform="translate(0,0)"/>
<path d="" fill="#2D8D41" transform="translate(0,0)"/>
<path d="" fill="#23923A" transform="translate(0,0)"/>
<path d="" fill="#18862E" transform="translate(0,0)"/>
<path d="" fill="#2B9140" transform="translate(0,0)"/>
<path d="" fill="#298B3E" transform="translate(0,0)"/>
<path d="" fill="#1D8032" transform="translate(0,0)"/>
<path d="" fill="#15772B" transform="translate(0,0)"/>
<path d="" fill="#2C9442" transform="translate(0,0)"/>
<path d="" fill="#248238" transform="translate(0,0)"/>
<path d="" fill="#117926" transform="translate(0,0)"/>
<path d="" fill="#2A8B3E" transform="translate(0,0)"/>
<path d="" fill="#298B3E" transform="translate(0,0)"/>
<path d="" fill="#2E9241" transform="translate(0,0)"/>
<path d="" fill="#298C3E" transform="translate(0,0)"/>
<path d="" fill="#2D8E42" transform="translate(0,0)"/>
<path d="" fill="#319244" transform="translate(0,0)"/>
<path d="" fill="#2B9141" transform="translate(0,0)"/>
<path d="" fill="#218535" transform="translate(0,0)"/>
<path d="" fill="#2B9141" transform="translate(0,0)"/>
<path d="" fill="#2A8B3E" transform="translate(0,0)"/>
<path d="" fill="#2B9241" transform="translate(0,0)"/>
<path d="" fill="#2A8B3E" transform="translate(0,0)"/>
<path d="" fill="#2A8B3E" transform="translate(0,0)"/>
<path d="" fill="#2C9342" transform="translate(0,0)"/>
<path d="" fill="#2D9B43" transform="translate(0,0)"/>
<path d="" fill="#2B9141" transform="translate(0,0)"/>
<path d="" fill="#2A8B3D" transform="translate(0,0)"/>
<path d="" fill="#2B9141" transform="translate(0,0)"/>
<path d="" fill="#28893D" transform="translate(0,0)"/>
<path d="" fill="#2B8C3F" transform="translate(0,0)"/>
<path d="" fill="#1E8331" transform="translate(0,0)"/>
<path d="" fill="#1E8533" transform="translate(0,0)"/>
<path d="" fill="#2B8A3E" transform="translate(0,0)"/>
<path d="" fill="#2B9140" transform="translate(0,0)"/>
<path d="" fill="#0F7924" transform="translate(0,0)"/>
<path d="" fill="#2B9140" transform="translate(0,0)"/>
<path d="" fill="#36A54D" transform="translate(0,0)"/>
<path d="" fill="#137E29" transform="translate(0,0)"/>
<path d="" fill="#2A8B3E" transform="translate(0,0)"/>
<path d="" fill="#298B3E" transform="translate(0,0)"/>
<path d="" fill="#258539" transform="translate(0,0)"/>
<path d="" fill="#2C9141" transform="translate(0,0)"/>
<path d="" fill="#288C3B" transform="translate(0,0)"/>
<path d="" fill="#268B3A" transform="translate(0,0)"/>
<path d="" fill="#2B8B3F" transform="translate(0,0)"/>
<path d="" fill="#2E9543" transform="translate(0,0)"/>
<path d="" fill="#2A8A3D" transform="translate(0,0)"/>
<path d="" fill="#2B8B3F" transform="translate(0,0)"/>
<path d="" fill="#2E9143" transform="translate(0,0)"/>
<path d="" fill="#258838" transform="translate(0,0)"/>
<path d="" fill="#2C8B3F" transform="translate(0,0)"/>
<path d="" fill="#2E9143" transform="translate(0,0)"/>
<path d="" fill="#2E9142" transform="translate(0,0)"/>
<path d="" fill="#26883A" transform="translate(0,0)"/>
<path d="" fill="#2A893D" transform="translate(0,0)"/>
<path d="" fill="#268438" transform="translate(0,0)"/>
<path d="" fill="#2F9344" transform="translate(0,0)"/>
<path d="" fill="#2F8F41" transform="translate(0,0)"/>
<path d="" fill="#2C8B40" transform="translate(0,0)"/>
<path d="" fill="#258339" transform="translate(0,0)"/>
<path d="" fill="#298B3D" transform="translate(0,0)"/>
<path d="" fill="#2C8F41" transform="translate(0,0)"/>
<path d="" fill="#2F9945" transform="translate(0,0)"/>
<path d="" fill="#2F9143" transform="translate(0,0)"/>
<path d="" fill="#2D8C40" transform="translate(0,0)"/>
<path d="" fill="#309045" transform="translate(0,0)"/>
<path d="" fill="#2D8B41" transform="translate(0,0)"/>
<path d="" fill="#2D8B40" transform="translate(0,0)"/>
<path d="" fill="#228035" transform="translate(0,0)"/>
<path d="" fill="#2C8C3F" transform="translate(0,0)"/>
<path d="" fill="#2E8C41" transform="translate(0,0)"/>
<path d="" fill="#2C8F41" transform="translate(0,0)"/>
<path d="" fill="#2F9143" transform="translate(0,0)"/>
<path d="" fill="#319E47" transform="translate(0,0)"/>
<path d="" fill="#1B7E30" transform="translate(0,0)"/>
<path d="" fill="#2C863F" transform="translate(0,0)"/>
<path d="" fill="#2D9542" transform="translate(0,0)"/>
<path d="" fill="#2F9C45" transform="translate(0,0)"/>
<path d="" fill="#2E9643" transform="translate(0,0)"/>
<path d="" fill="#2C9241" transform="translate(0,0)"/>
<path d="" fill="#29973F" transform="translate(0,0)"/>
<path d="" fill="#2D9542" transform="translate(0,0)"/>
<path d="" fill="#2C9241" transform="translate(0,0)"/>
<path d="" fill="#2C9241" transform="translate(0,0)"/>
<path d="" fill="#2D9542" transform="translate(0,0)"/>
<path d="" fill="#2E9242" transform="translate(0,0)"/>
<path d="" fill="#29893C" transform="translate(0,0)"/>
<path d="" fill="#2E9242" transform="translate(0,0)"/>
<path d="" fill="#1F8133" transform="translate(0,0)"/>
<path d="" fill="#1F7F32" transform="translate(0,0)"/>
<path d="" fill="#2E8F42" transform="translate(0,0)"/>
<path d="" fill="#2B8C3E" transform="translate(0,0)"/>
<path d="" fill="#2D8B41" transform="translate(0,0)"/>
<path d="" fill="#2F9243" transform="translate(0,0)"/>
<path d="" fill="#2E9243" transform="translate(0,0)"/>
<path d="" fill="#2E9443" transform="translate(0,0)"/>
<path d="" fill="#2E9443" transform="translate(0,0)"/>
<path d="" fill="#227E32" transform="translate(0,0)"/>
<path d="" fill="#2E9443" transform="translate(0,0)"/>
<path d="" fill="#2F9243" transform="translate(0,0)"/>
<path d="" fill="#1F8B34" transform="translate(0,0)"/>
<path d="" fill="#309645" transform="translate(0,0)"/>
<path d="" fill="#2E8F42" transform="translate(0,0)"/>
<path d="" fill="#319846" transform="translate(0,0)"/>
<path d="" fill="#34A04A" transform="translate(0,0)"/>
<path d="" fill="#2D8C40" transform="translate(0,0)"/>
<path d="" fill="#2F9143" transform="translate(0,0)"/>
<path d="" fill="#329346" transform="translate(0,0)"/>
<path d="" fill="#197A2E" transform="translate(0,0)"/>
<path d="" fill="#309344" transform="translate(0,0)"/>
<path d="" fill="#2F9143" transform="translate(0,0)"/>
<path d="" fill="#278A3A" transform="translate(0,0)"/>
<path d="" fill="#2D8C40" transform="translate(0,0)"/>
<path d="" fill="#318A43" transform="translate(0,0)"/>
<path d="" fill="#308D44" transform="translate(0,0)"/>
<path d="" fill="#218132" transform="translate(0,0)"/>
<path d="" fill="#27873A" transform="translate(0,0)"/>
<path d="" fill="#309444" transform="translate(0,0)"/>
<path d="" fill="#2F9243" transform="translate(0,0)"/>
<path d="" fill="#268C3C" transform="translate(0,0)"/>
<path d="" fill="#319B46" transform="translate(0,0)"/>
<path d="" fill="#2D8C40" transform="translate(0,0)"/>
<path d="" fill="#28883B" transform="translate(0,0)"/>
<path d="" fill="#278538" transform="translate(0,0)"/>
<path d="" fill="#29933F" transform="translate(0,0)"/>
<path d="" fill="#2F9143" transform="translate(0,0)"/>
<path d="" fill="#2C8C3F" transform="translate(0,0)"/>
<path d="" fill="#2C8B3F" transform="translate(0,0)"/>
<path d="" fill="#2F9143" transform="translate(0,0)"/>
<path d="" fill="#2A8C3E" transform="translate(0,0)"/>
<path d="" fill="#309343" transform="translate(0,0)"/>
<path d="" fill="#268A3A" transform="translate(0,0)"/>
<path d="" fill="#2B8C3F" transform="translate(0,0)"/>
<path d="" fill="#2D9141" transform="translate(0,0)"/>
<path d="" fill="#1D8A33" transform="translate(0,0)"/>
<path d="" fill="#2A8C3D" transform="translate(0,0)"/>
<path d="" fill="#1E8033" transform="translate(0,0)"/>
<path d="" fill="#2B8C3E" transform="translate(0,0)"/>
<path d="" fill="#2D9442" transform="translate(0,0)"/>
<path d="" fill="#2A8C3E" transform="translate(0,0)"/>
<path d="" fill="#2A8C3E" transform="translate(0,0)"/>
<path d="" fill="#2D8C40" transform="translate(0,0)"/>
<path d="" fill="#2D9A43" transform="translate(0,0)"/>
<path d="" fill="#1F8031" transform="translate(0,0)"/>
<path d="" fill="#2C9241" transform="translate(0,0)"/>
<path d="" fill="#2C9241" transform="translate(0,0)"/>
<path d="" fill="#2C9241" transform="translate(0,0)"/>
<path d="" fill="#218535" transform="translate(0,0)"/>
<path d="" fill="#2A8C3D" transform="translate(0,0)"/>
<path d="" fill="#2B8D3E" transform="translate(0,0)"/>
<path d="" fill="#2A8C3E" transform="translate(0,0)"/>
<path d="" fill="#2B8D40" transform="translate(0,0)"/>
<path d="" fill="#218434" transform="translate(0,0)"/>
<path d="" fill="#298C3D" transform="translate(0,0)"/>
<path d="" fill="#2E9A43" transform="translate(0,0)"/>
</svg>
